<svg xmlns="http://www.w3.org/2000/svg" width="1200" height="630" viewBox="0 0 1200 630" fill="none">
	<rect width="1200" height="630" fill="#020817" />
	<circle cx="1035" cy="125" r="220" fill="#1D5FFF" fill-opacity=".22" />
	<circle cx="180" cy="90" r="180" fill="#4F46E5" fill-opacity=".18" />
	<circle cx="235" cy="520" r="200" fill="#1D5FFF" fill-opacity=".18" />
	<path d="M0 0H1200V630H0Z" fill="url(#fade)" />
	<g opacity=".16">
		<path d="M120 0V630M240 0V630M360 0V630M480 0V630M600 0V630M720 0V630M840 0V630M960 0V630M1080 0V630" stroke="#93C5FD" />
		<path d="M0 90H1200M0 210H1200M0 330H1200M0 450H1200M0 570H1200" stroke="#93C5FD" />
	</g>
	<rect x="92" y="94" width="86" height="86" rx="24" fill="url(#brand)" />
	<path d="M116 124L135 138.25L154 124" stroke="white" stroke-width="5" stroke-linecap="round" stroke-linejoin="round" />
	<path d="M116 124H154V152C154 153.657 152.657 155 151 155H119C117.343 155 116 153.657 116 152V124Z" stroke="white" stroke-width="5" stroke-linejoin="round" />
	<path d="M151 102L130.5 143H144L119 177" stroke="#F8FBFF" stroke-width="6" stroke-linecap="round" stroke-linejoin="round" />
	<text x="92" y="270" fill="#93C5FD" font-family="Space Grotesk, Arial, sans-serif" font-size="22" font-weight="700" letter-spacing="8">OFFICIAL SITE</text>
	<text x="92" y="355" fill="#F8FBFF" font-family="Space Grotesk, Arial, sans-serif" font-size="74" font-weight="700">
		Email for the Edge.
	</text>
	<text x="92" y="432" fill="#F8FBFF" font-family="Space Grotesk, Arial, sans-serif" font-size="74" font-weight="700">
		Built for Cloudflare Workers.
	</text>
	<text x="92" y="505" fill="#A5B4FC" font-family="JetBrains Mono, monospace" font-size="28">
		@ribassu/worker-mailer   •   Bun   •   Flowbite Svelte   •   EmDash-ready
	</text>
	<defs>
		<linearGradient id="brand" x1="100" y1="100" x2="170" y2="170" gradientUnits="userSpaceOnUse">
			<stop stop-color="#1D5FFF" />
			<stop offset="1" stop-color="#4F46E5" />
		</linearGradient>
		<linearGradient id="fade" x1="600" y1="0" x2="600" y2="630" gradientUnits="userSpaceOnUse">
			<stop stop-color="#081223" stop-opacity="0" />
			<stop offset="1" stop-color="#081223" stop-opacity=".42" />
		</linearGradient>
	</defs>
</svg>
